<?xml version="1.0" encoding="utf-8"?>
<!-- Generator: Adobe Illustrator 25.4.1, SVG Export Plug-In . SVG Version: 6.00 Build 0)  -->
<svg version="1.1" id="Layer_1" xmlns="http://www.w3.org/2000/svg" xmlns:xlink="http://www.w3.org/1999/xlink" x="0px" y="0px"
	 viewBox="0 0 528.8 238.2" style="enable-background:new 0 0 528.8 238.2;" xml:space="preserve">
<style type="text/css">
	.st0{fill:#738185;}
	.st1{fill:#33525B;}
	.st2{fill:url(#Path_68_00000116206990550440445720000004069106381516223886_);}
	.st3{fill:url(#Path_69_00000109016480569910193750000002201745414158949769_);}
</style>
<g id="Logo" transform="translate(-18.345 -107.177)">
	<g id="Group_16" transform="translate(198.994 313.697)">
		<path id="Path_56" class="st0" d="M24.4,31.7h-3.7V16.9h-17v14.8H0V0.1h3.7v13.6h17V0.1h3.7V31.7z"/>
		<path id="Path_57" class="st0" d="M34.7,31.7V0.1h18.1l-0.1,3.3H38.4v10.3H52v3.2H38.4v11.5h14.7l-0.2,3.3H34.7z"/>
		<path id="Path_58" class="st0" d="M82.2,31.7l-3.7-10H65.9l-3.8,10h-3.8L70.4,0h3.8L86,31.7H82.2z M77.3,18.5
			c-3-8.7-4.7-13.6-5-14.7l-5.2,14.7H77.3z"/>
		<path id="Path_59" class="st0" d="M92.6,31.7V0.1h3.7v28.3h13.9l-0.1,3.3H92.6z"/>
		<path id="Path_60" class="st0" d="M125.2,31.7h-3.7V3.4h-9.7V0.1H135v3.3h-9.7L125.2,31.7z"/>
		<path id="Path_61" class="st0" d="M166,31.7h-3.7V16.9h-17v14.8h-3.7V0.1h3.7v13.6h17V0.1h3.7V31.7z"/>
	</g>
	<g id="Group_17" transform="translate(18.345 179.618)">
		<path id="Path_62" class="st1" d="M286.5,116.6c-6.6,0.1-13.1-1.8-18.7-5.3c-11.7-7.3-18.7-20.2-18.5-33.9
			c-0.1-10.3,3.8-20.3,10.9-27.8c3.4-3.6,7.4-6.4,11.9-8.5c10.8-4.8,23.2-3.9,33.2,2.2c5.6,3.5,10.3,8.4,13.5,14.2
			c5.9,10.8,6.6,23.6,2.1,35c-1.9,4.6-4.6,8.9-8,12.5s-7.4,6.4-11.9,8.5C296.4,115.6,291.5,116.7,286.5,116.6z M286.5,101.1
			c3.9,0.1,7.8-1.1,11.1-3.3c3.3-2.2,6-5.2,7.8-8.7c3.9-7.4,3.8-16.3-0.1-23.7c-1.9-3.5-4.6-6.5-7.9-8.7c-6.7-4.3-15.3-4.3-22,0
			c-3.3,2.2-6,5.2-7.8,8.7c-1.9,3.7-2.9,7.7-2.9,11.9c-0.1,4.2,1,8.3,3,12c1.9,3.5,4.6,6.4,7.9,8.5
			C278.8,100,282.6,101.1,286.5,101.1L286.5,101.1z"/>
		<path id="Path_63" class="st1" d="M161.8,65.7c-1.5-5.2-4-10.1-7.5-14.3c-3.3-4.1-7.5-7.4-12.2-9.8c-9.5-4.5-20.5-4.7-30.2-0.5
			c-4.5,2-8.5,4.9-11.9,8.5c-7.1,7.5-11,17.5-10.9,27.8C89,91.2,96,104,107.6,111.3c12,7.4,27.3,7,39-1c3.6-2.5,5.1-3.6,6.7-5.5l0,0
			c1.2-1.2,4-4,6.5-10.5c0.3-0.8-0.1-1.7-0.9-2c-0.2-0.1-0.3-0.1-0.5-0.1c-3.5-0.2-10.4-0.5-10.6-0.5c-2.4,0-4.7,1-6.3,2.7
			c-1.2,1.2-2.5,2.3-3.9,3.3l-0.8,0.5c-3.1,1.9-6.7,2.9-10.3,2.8c-3.4,0-6.7-0.8-9.7-2.5c-2.9-1.6-5.3-3.8-7.2-6.5
			c-1.9-2.8-3.2-6-3.8-9.3h56.5c0.5,0,1-0.4,1-0.9C163.8,76.5,163.3,70.9,161.8,65.7z M105.2,71c0.6-3.5,1.9-6.8,3.9-9.8
			c1.9-2.9,4.5-5.2,7.5-6.9c6.1-3.4,13.6-3.4,19.7,0c3,1.7,5.6,4.1,7.5,6.9c2,2.9,3.3,6.2,3.8,9.7L105.2,71z"/>
		<path id="Path_64" class="st1" d="M527.1,65.7c-1.5-5.2-4-10.1-7.5-14.3c-3.3-4.1-7.5-7.4-12.2-9.8c-9.5-4.5-20.5-4.7-30.2-0.5
			c-4.5,2-8.5,4.9-11.9,8.5c-7.1,7.5-11,17.5-10.9,27.8c-0.1,13.8,6.9,26.6,18.5,33.9c12,7.4,27.3,7,39-1c3.5-2.5,5.1-3.6,6.7-5.5
			l0,0c1.2-1.2,4-4,6.5-10.5c0.3-0.8-0.1-1.7-0.9-2c-0.2-0.1-0.3-0.1-0.5-0.1c-3.5-0.2-10.4-0.5-10.6-0.5c-2.4,0-4.7,1-6.3,2.7
			c-1.2,1.2-2.5,2.3-3.9,3.3l-0.8,0.5c-3.1,1.9-6.7,2.9-10.3,2.8c-3.4,0-6.7-0.8-9.7-2.5c-2.9-1.6-5.3-3.8-7.2-6.5
			c-1.9-2.8-3.2-6-3.8-9.3h56.5c0.5,0,1-0.4,1-0.9C529.1,76.5,528.6,70.9,527.1,65.7z M470.5,71c0.6-3.5,1.9-6.8,3.9-9.8
			c1.9-2.9,4.5-5.2,7.5-6.9c6.1-3.4,13.6-3.4,19.7,0c3,1.7,5.6,4.1,7.5,6.9c2,2.9,3.3,6.2,3.8,9.7L470.5,71z"/>
		<path id="Path_65" class="st1" d="M442.7,57.3c-2.6-5.3-6.6-9.9-11.5-13.2c-5-3.4-10.9-5.1-16.9-5c-5.1-0.1-10,1.2-14.4,3.7
			c-4.4,2.6-8.1,6.2-10.8,10.6c-2.7-4.3-6.4-7.9-10.7-10.5c-4.4-2.6-9.5-3.9-14.6-3.8c-3.4-0.1-6.7,0.9-9.5,2.9
			c-2.9,2.1-5.4,4.6-7.6,7.4c0.1-1.4,0.1-2.9,0-4.3c0,0,0.2-7.1-9-7c-1.6,0-6.4-0.1-8.4,0.4c-0.3,0.1-0.5,0.4-0.4,0.7v0.1l0.9,2
			c0.8,1.8,1.3,3.8,1.3,5.9v68.5c0,0.6,0.5,1.1,1.1,1.1l0,0h13.3c0.6,0,1.1-0.5,1.1-1.1l0,0V76.2c0-3.6,0.7-7.1,2.2-10.4
			c1.4-3,3.5-5.6,6.1-7.6c2.5-1.9,5.6-2.9,8.8-2.9c3.2-0.1,6.4,0.9,9.1,2.8s4.8,4.4,6.2,7.3c1.5,3.2,2.3,6.7,2.2,10.3v40.1
			c0,0.6,0.5,1.1,1.1,1.1l0,0h13.3c0.6,0,1.1-0.5,1.1-1.1l0,0V75.4c0-3.5,0.7-7,2.2-10.3c1.4-3,3.5-5.5,6.2-7.3s5.8-2.8,9.1-2.8
			c3.2-0.1,6.4,0.9,9,2.8s4.6,4.4,5.9,7.3c1.5,3.2,2.2,6.7,2.1,10.3v40.1c0,0.6,0.5,1.1,1.1,1.1l0,0h13.3c0.6,0,1.1-0.5,1.1-1.1l0,0
			V75.4C447,69.1,445.5,62.9,442.7,57.3z"/>
		<path id="Path_66" class="st1" d="M230.5,91.8c-2.1,0-4.1,0.8-5.6,2.1c-2.5,1.9-5.1,3.6-7.8,5.1c-6.3,3.2-13.9,2.7-19.8-1.2
			c-3.3-2.2-6-5.2-7.9-8.7c-1.9-3.6-2.9-7.6-2.9-11.7s0.9-8.2,2.9-11.8c1.8-3.5,4.5-6.5,7.8-8.7s7.1-3.4,11.1-3.3l0,0
			c3.4,0,6.6,1.1,9.3,3.2l2.5,1.9c1,0.8,2.1,1.4,3.3,1.8c0.2,0.3,1.5,0.3,1.5,0.3c2.6,0.1,5.3-0.2,7.8-1c1.8-0.6,8-2.1,7-4
			c-3.1-5.9-10.4-11.2-14.6-13.5c-9.7-5.2-21.3-5.7-31.3-1.2c-4.5,2-8.5,4.9-11.9,8.5c-7.1,7.5-11,17.5-10.9,27.8
			c-0.1,13.8,6.9,26.6,18.5,33.9c5.6,3.5,12.1,5.4,18.7,5.3c6.1,0,11.5-1.8,16.9-4.2c6.1-2.8,15.4-11.9,16.3-17.9
			c0.2-1.1-0.3-2.3-1.4-2.3C236.6,92,230.7,91.8,230.5,91.8z"/>
		<path id="Path_67" class="st1" d="M76.3,57.5c-3.5-5.9-8.3-10.7-14.2-14.2c-6-3.5-12.8-5.4-19.8-5.3c-4.8-0.1-9.5,1.1-13.7,3.6
			c-3.9,2.3-7.1,5.5-9.6,9.3V16.1c0,0,0.2-12.3-5.3-14.9S2.3,0.8,0.4,1.3C0,1.5-0.1,2,0.1,2.4c0.1,0.1,0.2,0.2,0.3,0.3
			C2.1,4,3.2,5.9,3.5,8v105.5c0,0.6,0.5,1.1,1.1,1.1H18c0.6,0,1.1-0.5,1.1-1.1v-9.9c2.5,3.8,5.7,6.9,9.6,9.3
			c4.1,2.5,8.9,3.7,13.7,3.6c5.2,0,10.4-1,15.2-3.1c9.4-4,17-11.5,21-21C83.3,81.2,82.4,68.2,76.3,57.5L76.3,57.5z M62.5,89.5
			c-2,3.6-5,6.6-8.5,8.8c-3.6,2.2-7.7,3.3-11.9,3.3c-4,0.1-8-1-11.4-3.2c-3.3-2.2-5.9-5.2-7.7-8.8c-3.7-7.7-3.7-16.7,0-24.5
			c1.7-3.6,4.4-6.6,7.7-8.8c3.4-2.2,7.4-3.4,11.4-3.3c4.2,0,8.2,1.1,11.8,3.2c3.6,2.1,6.5,5.2,8.6,8.8
			C66.7,72.6,66.8,81.9,62.5,89.5z"/>
	</g>
	<g id="Group_18" transform="translate(198.786 107.177)">
		
			<linearGradient id="Path_68_00000024722849250005742410000001854385042720592268_" gradientUnits="userSpaceOnUse" x1="-401.0524" y1="-272.7216" x2="-400.0526" y2="-272.7216" gradientTransform="matrix(94.6591 0 0 62.944 37963.3203 17224.1387)">
			<stop  offset="0" style="stop-color:#95CAC0"/>
			<stop  offset="1" style="stop-color:#83BBCD"/>
		</linearGradient>
		<path id="Path_68" style="fill:url(#Path_68_00000024722849250005742410000001854385042720592268_);" d="M94.7,89.4l-42.9-2
			c0,0-11.3,0-19.5-5.3c-8.2-5.4-17.7-16.6-20.9-22.7c-3.2-6.2-12-27.3-11.3-32.9c0,0,45.2,1.7,46.2,1.9s18.5,0.3,29.2,20.3
			c1.2,2.2,2.3,4.3,3.4,6.5c7.2,14.1,12.9,27.4,15,32.3C94.4,88.7,94.7,89.4,94.7,89.4z"/>
		
			<linearGradient id="Path_69_00000073713122181758579500000001142320303983351436_" gradientUnits="userSpaceOnUse" x1="-399.399" y1="-273.5139" x2="-399.399" y2="-274.5147" gradientTransform="matrix(25.716 0 0 89.326 10363.8799 24521.3027)">
			<stop  offset="0" style="stop-color:#456873"/>
			<stop  offset="0.123" style="stop-color:#527986"/>
			<stop  offset="0.356" style="stop-color:#6796A4"/>
			<stop  offset="0.585" style="stop-color:#75A9BA"/>
			<stop  offset="0.803" style="stop-color:#7FB6C8"/>
			<stop  offset="1" style="stop-color:#83BBCD"/>
		</linearGradient>
		<path id="Path_69" style="fill:url(#Path_69_00000073713122181758579500000001142320303983351436_);" d="M98.4,22.7
			C97.7,21.3,87.4,0,87.4,0c-6.1,13.8-7.2,30.3-7.3,40.2c0,5.1,0.9,10.2,2.5,15c5.4,12.6,12.9,27.4,15,32.3l0.9,1.9
			c0,0,3-16.2,6.5-32.6S99,24,98.4,22.7z"/>
	</g>
</g>
</svg>
